<svg width="22" height="22" viewBox="0 0 22 22" fill="none" xmlns="http://www.w3.org/2000/svg">
<path d="M15.4375 10.6562C15.4199 9.25 16.0234 8.01562 17.2344 7.19531C16.4961 6.09375 15.3203 5.46875 13.9062 5.39062C12.5391 5.26562 11.0859 6.23438 10.4297 6.23438C9.75 6.23438 8.48438 5.41406 7.34375 5.41406C5.17969 5.44531 2.875 7.125 2.875 10.5547C2.875 11.3984 3.02344 12.2773 3.32031 13.1914C3.73438 14.4375 5.51562 17.875 7.58594 17.8047C8.6875 17.7695 9.41406 17.0547 10.7578 17.0547C12.0664 17.0547 12.7578 17.8047 13.9414 17.7695C16.0469 17.7344 17.6484 14.5781 18.0273 13.3203C15.5859 12.0391 15.4375 10.7031 15.4375 10.6562ZM13.2031 3.875C14.1719 2.67188 14.0938 1.58594 14.0586 1.125C13.1953 1.17969 12.1641 1.73438 11.5781 2.42969C10.9219 3.17969 10.5781 4.09375 10.6484 5.08594C11.5938 5.15625 12.4727 4.67188 13.2031 3.875Z" fill="currentColor"/>
</svg>