<svg width="22" height="22" viewBox="0 0 22 22" fill="none" xmlns="http://www.w3.org/2000/svg">
<path d="M22 11C22 4.92487 17.0751 0 11 0C4.92487 0 0 4.92487 0 11C0 16.5017 3.65684 21.1667 8.59375 21.8854V14.2031H6.20801V11H8.59375V8.5752C8.59375 6.22168 10.0825 4.84375 12.2666 4.84375C13.3101 4.84375 14.4023 5.02734 14.4023 5.02734V7.34375H13.1931C11.9988 7.34375 11.5938 8.08447 11.5938 8.84033V11H14.2852L13.8267 14.2031H11.5938V21.8854C16.5307 21.1667 20.1875 16.5017 20.1875 11H22Z" fill="white"/>
</svg>