<svg width="22" height="22" viewBox="0 0 22 22" fill="none" xmlns="http://www.w3.org/2000/svg">
<g clip-path="url(#clip0_google)">
<path d="M21.8055 11.2292C21.8055 10.5208 21.7347 9.83542 21.6055 9.16667H11.2222V13.05H17.1736C16.9444 14.3 16.2222 15.3542 15.1389 16.0708V18.7708H18.6181C20.5097 17.0125 21.8055 14.3833 21.8055 11.2292Z" fill="#4285F4"/>
<path d="M11.2222 21.4167C14.025 21.4167 16.3597 20.5042 18.6181 18.7708L15.1389 16.0708C14.2264 16.6625 13.0583 17.0125 11.2222 17.0125C8.52639 17.0125 6.26389 15.2375 5.45 12.8125H1.84167V15.5958C4.08333 20.0458 7.31806 21.4167 11.2222 21.4167Z" fill="#34A853"/>
<path d="M5.45 12.8125C5.25 12.2208 5.13611 11.5875 5.13611 10.9375C5.13611 10.2875 5.25 9.65417 5.45 9.0625V6.27917H1.84167C1.15278 7.6375 0.75 9.2375 0.75 10.9375C0.75 12.6375 1.15278 14.2375 1.84167 15.5958L5.45 12.8125Z" fill="#FBBC05"/>
<path d="M11.2222 4.8625C13.2222 4.8625 14.9694 5.5625 16.3278 6.85417L19.4222 3.75833C16.3514 0.904167 14.025 -0.458333 11.2222 -0.458333C7.31806 -0.458333 4.08333 0.9125 1.84167 5.3625L5.45 8.14583C6.26389 5.72083 8.52639 3.94583 11.2222 3.94583V4.8625Z" fill="#EA4335"/>
</g>
<defs>
<clipPath id="clip0_google">
<rect width="21.0556" height="21.875" fill="white" transform="translate(0.75 -0.458333)"/>
</clipPath>
</defs>
</svg>